<svg width="344" height="95" viewBox="0 0 344 95" fill="none" xmlns="http://www.w3.org/2000/svg">
<path d="M337.23 58.7382C337.23 57.8385 337.53 57.1085 338.127 56.5481C338.74 55.9874 339.501 55.7071 340.412 55.7071C341.336 55.7071 342.097 55.9874 342.697 56.5481C343.308 57.1085 343.613 57.8385 343.613 58.7382C343.613 59.6245 343.313 60.3481 342.716 60.9085C342.117 61.4561 341.35 61.7298 340.412 61.7298C339.487 61.7298 338.726 61.4561 338.127 60.9085C337.53 60.3481 337.23 59.6245 337.23 58.7382Z" fill="#326631"/>
<path d="M146.861 32.9091V62H141.548L128.892 43.6903H128.679V62H122.528V32.9091H127.926L140.483 51.2045H140.739V32.9091H146.861ZM161.772 62.4261C159.528 62.4261 157.596 61.9716 155.977 61.0625C154.367 60.1439 153.126 58.8466 152.255 57.1705C151.384 55.4848 150.948 53.4915 150.948 51.1903C150.948 48.946 151.384 46.9763 152.255 45.2812C153.126 43.5862 154.353 42.2652 155.934 41.3182C157.525 40.3712 159.39 39.8977 161.531 39.8977C162.97 39.8977 164.31 40.1297 165.55 40.5938C166.8 41.0483 167.889 41.7348 168.817 42.6534C169.755 43.572 170.484 44.7273 171.005 46.1193C171.526 47.5019 171.786 49.1212 171.786 50.9773V52.6392H153.363V48.8892H166.09C166.09 48.018 165.901 47.2462 165.522 46.5739C165.143 45.9015 164.618 45.3759 163.945 44.9972C163.282 44.6089 162.511 44.4148 161.63 44.4148C160.711 44.4148 159.897 44.6278 159.187 45.054C158.486 45.4706 157.937 46.0341 157.539 46.7443C157.141 47.4451 156.938 48.2263 156.928 49.0881V52.6534C156.928 53.733 157.127 54.6657 157.525 55.4517C157.932 56.2377 158.505 56.8438 159.244 57.2699C159.982 57.696 160.858 57.9091 161.871 57.9091C162.544 57.9091 163.159 57.8144 163.718 57.625C164.277 57.4356 164.755 57.1515 165.153 56.7727C165.55 56.3939 165.853 55.9299 166.062 55.3807L171.658 55.75C171.374 57.0947 170.792 58.2689 169.911 59.2727C169.04 60.267 167.913 61.0436 166.531 61.6023C165.157 62.1515 163.571 62.4261 161.772 62.4261ZM179.883 62L173.945 40.1818H180.067L183.448 54.8409H183.647L187.17 40.1818H193.178L196.758 54.7557H196.942L200.266 40.1818H206.374L200.451 62H194.045L190.295 48.2784H190.025L186.275 62H179.883ZM227.756 46.4034L222.216 46.7443C222.121 46.2708 221.918 45.8447 221.605 45.4659C221.293 45.0777 220.881 44.7699 220.369 44.5426C219.867 44.3059 219.266 44.1875 218.565 44.1875C217.628 44.1875 216.837 44.3864 216.193 44.7841C215.549 45.1723 215.227 45.6932 215.227 46.3466C215.227 46.8674 215.436 47.3078 215.852 47.6676C216.269 48.0275 216.984 48.3163 217.997 48.5341L221.946 49.3295C224.067 49.7652 225.649 50.4659 226.69 51.4318C227.732 52.3977 228.253 53.6667 228.253 55.2386C228.253 56.6686 227.831 57.9233 226.989 59.0028C226.155 60.0824 225.009 60.9252 223.551 61.5312C222.102 62.1278 220.431 62.4261 218.537 62.4261C215.649 62.4261 213.348 61.8248 211.634 60.6222C209.929 59.41 208.93 57.7623 208.636 55.679L214.588 55.3665C214.768 56.2472 215.204 56.9195 215.895 57.3835C216.586 57.8381 217.472 58.0653 218.551 58.0653C219.612 58.0653 220.464 57.8617 221.108 57.4545C221.761 57.0379 222.093 56.5028 222.102 55.8494C222.093 55.3002 221.861 54.8504 221.406 54.5C220.952 54.1402 220.251 53.8655 219.304 53.6761L215.526 52.9233C213.395 52.4972 211.809 51.7585 210.767 50.7074C209.735 49.6562 209.219 48.3163 209.219 46.6875C209.219 45.286 209.598 44.0786 210.355 43.0653C211.122 42.0521 212.197 41.2708 213.58 40.7216C214.972 40.1723 216.6 39.8977 218.466 39.8977C221.222 39.8977 223.39 40.4801 224.972 41.6449C226.563 42.8097 227.491 44.3958 227.756 46.4034ZM238.114 32.9091V62H232.063V32.9091H238.114ZM252.905 62.4261C250.661 62.4261 248.729 61.9716 247.109 61.0625C245.5 60.1439 244.259 58.8466 243.388 57.1705C242.517 55.4848 242.081 53.4915 242.081 51.1903C242.081 48.946 242.517 46.9763 243.388 45.2812C244.259 43.5862 245.485 42.2652 247.067 41.3182C248.658 40.3712 250.523 39.8977 252.663 39.8977C254.103 39.8977 255.443 40.1297 256.683 40.5938C257.933 41.0483 259.022 41.7348 259.95 42.6534C260.888 43.572 261.617 44.7273 262.138 46.1193C262.659 47.5019 262.919 49.1212 262.919 50.9773V52.6392H244.496V48.8892H257.223C257.223 48.018 257.034 47.2462 256.655 46.5739C256.276 45.9015 255.75 45.3759 255.078 44.9972C254.415 44.6089 253.643 44.4148 252.763 44.4148C251.844 44.4148 251.03 44.6278 250.32 45.054C249.619 45.4706 249.07 46.0341 248.672 46.7443C248.274 47.4451 248.071 48.2263 248.061 49.0881V52.6534C248.061 53.733 248.26 54.6657 248.658 55.4517C249.065 56.2377 249.638 56.8438 250.376 57.2699C251.115 57.696 251.991 57.9091 253.004 57.9091C253.677 57.9091 254.292 57.8144 254.851 57.625C255.41 57.4356 255.888 57.1515 256.286 56.7727C256.683 56.3939 256.986 55.9299 257.195 55.3807L262.791 55.75C262.507 57.0947 261.925 58.2689 261.044 59.2727C260.173 60.267 259.046 61.0436 257.663 61.6023C256.29 62.1515 254.704 62.4261 252.905 62.4261ZM278.473 40.1818V44.7273H265.334V40.1818H278.473ZM268.317 34.9545H274.368V55.2955C274.368 55.8542 274.453 56.2898 274.624 56.6023C274.794 56.9053 275.031 57.1184 275.334 57.2415C275.646 57.3646 276.006 57.4261 276.413 57.4261C276.697 57.4261 276.982 57.4025 277.266 57.3551C277.55 57.2983 277.768 57.2557 277.919 57.2273L278.871 61.7301C278.568 61.8248 278.142 61.9337 277.592 62.0568C277.043 62.1894 276.375 62.2699 275.589 62.2983C274.131 62.3551 272.853 62.161 271.754 61.7159C270.665 61.2708 269.818 60.5795 269.212 59.642C268.606 58.7045 268.307 57.5208 268.317 56.0909V34.9545ZM294.02 40.1818V44.7273H280.881V40.1818H294.02ZM283.864 34.9545H289.915V55.2955C289.915 55.8542 290 56.2898 290.17 56.6023C290.341 56.9053 290.578 57.1184 290.881 57.2415C291.193 57.3646 291.553 57.4261 291.96 57.4261C292.244 57.4261 292.528 57.4025 292.812 57.3551C293.097 57.2983 293.314 57.2557 293.466 57.2273L294.418 61.7301C294.115 61.8248 293.688 61.9337 293.139 62.0568C292.59 62.1894 291.922 62.2699 291.136 62.2983C289.678 62.3551 288.4 62.161 287.301 61.7159C286.212 61.2708 285.365 60.5795 284.759 59.642C284.152 58.7045 283.854 57.5208 283.864 56.0909V34.9545ZM307.67 62.4261C305.426 62.4261 303.494 61.9716 301.875 61.0625C300.265 60.1439 299.025 58.8466 298.153 57.1705C297.282 55.4848 296.847 53.4915 296.847 51.1903C296.847 48.946 297.282 46.9763 298.153 45.2812C299.025 43.5862 300.251 42.2652 301.832 41.3182C303.423 40.3712 305.289 39.8977 307.429 39.8977C308.868 39.8977 310.208 40.1297 311.449 40.5938C312.699 41.0483 313.788 41.7348 314.716 42.6534C315.653 43.572 316.383 44.7273 316.903 46.1193C317.424 47.5019 317.685 49.1212 317.685 50.9773V52.6392H299.261V48.8892H311.989C311.989 48.018 311.799 47.2462 311.42 46.5739C311.042 45.9015 310.516 45.3759 309.844 44.9972C309.181 44.6089 308.409 44.4148 307.528 44.4148C306.61 44.4148 305.795 44.6278 305.085 45.054C304.384 45.4706 303.835 46.0341 303.438 46.7443C303.04 47.4451 302.836 48.2263 302.827 49.0881V52.6534C302.827 53.733 303.026 54.6657 303.423 55.4517C303.83 56.2377 304.403 56.8438 305.142 57.2699C305.881 57.696 306.757 57.9091 307.77 57.9091C308.442 57.9091 309.058 57.8144 309.616 57.625C310.175 57.4356 310.653 57.1515 311.051 56.7727C311.449 56.3939 311.752 55.9299 311.96 55.3807L317.557 55.75C317.273 57.0947 316.69 58.2689 315.81 59.2727C314.938 60.267 313.812 61.0436 312.429 61.6023C311.056 62.1515 309.47 62.4261 307.67 62.4261ZM321.634 62V40.1818H327.5V43.9886H327.727C328.125 42.6345 328.793 41.6117 329.73 40.9205C330.668 40.2197 331.747 39.8693 332.969 39.8693C333.272 39.8693 333.598 39.8883 333.949 39.9261C334.299 39.964 334.607 40.0161 334.872 40.0824V45.4517C334.588 45.3665 334.195 45.2907 333.693 45.2244C333.191 45.1581 332.732 45.125 332.315 45.125C331.425 45.125 330.63 45.3191 329.929 45.7074C329.238 46.0862 328.688 46.6165 328.281 47.2983C327.884 47.9801 327.685 48.7661 327.685 49.6562V62H321.634Z" fill="#F3F3F3"/>
<path d="M94.9288 6.83806L83.0534 83.8596C82.775 85.6657 81.6849 87.2403 80.0901 88.1365C79.1913 88.641 78.1845 88.8967 77.1806 88.8967C76.4035 88.8967 75.637 88.7454 74.9002 88.438L52.1513 78.9565L42.7141 93.112C41.9904 94.3506 40.7843 95 39.4855 95C37.3516 95 35.6259 93.2744 35.6259 91.1406V73.2944C35.6259 71.9742 36.0661 70.6912 36.8769 69.6502L77.1899 17.8114L22.6929 66.8522L3.65326 58.9106C1.56541 58.0386 0.150474 56.0717 0.0113089 53.641C-0.127856 51.2103 1.0261 49.2398 2.99129 48.1172L86.1192 0.783581C88.1027 -0.34994 90.5502 -0.245661 92.428 1.04446C94.3058 2.33459 95.2813 4.58549 94.9288 6.83806Z" fill="#66314D"/>
</svg>
